# xmcd
#
# Track frame offsets:
# 150
# 13603
# 29082
# 41493
# 64235
# 75633
# 95814
# 109587
# 121663
# 135469
# 150699
# 168782
# 182586
# 202718
# 221549
#
# Disc length: 3114 seconds
#
#
# Revision: 0
# Processed by: cddbd v1.5.2PL0 Copyright (c) Steve Scherf et al.
# Submitted via: Nero 7, 11, 10, 0 
#
DISCID=bd0c280f
DTITLE=The Cadillac Kings - Trouble In Store
DYEAR=2008
DGENRE=Blues
TTITLE0=Too Blue
TTITLE1=She's My Sugar Rush
TTITLE2=Hot Rod V8 Ford
TTITLE3=Around The Block
TTITLE4=Blue Cap Bounce
TTITLE5=(I'm In Love With) The Chief Of Police
TTITLE6=Stop Digging That Hole
TTITLE7=Tongue-Tied
TTITLE8=Fries With That
TTITLE9=Less Is More
TTITLE10=Mr Nip and Tuck
TTITLE11=North Sea Jump
TTITLE12=Chain Gang Boogie
TTITLE13=Trouble In Store
TTITLE14=Mama Drop The Hammer
EXTD=
EXTT0=Too Blue
EXTT1=She's My Sugar Rush
EXTT2=Hot Rod V8 Ford
EXTT3=Around The Block
EXTT4=Blue Cap Bounce
EXTT5=(I'm In Love With) The Chief Of Police
EXTT6=Stop Digging That Hole
EXTT7=Tongue-Tied
EXTT8=Fries With That
EXTT9=Less Is More
EXTT10=Mr Nip and Tuck
EXTT11=North Sea Jump
EXTT12=Chain Gang Boogie
EXTT13=Trouble In Store
EXTT14=Mama Drop The Hammer
PLAYORDER=
